<svg width="961" height="1146" viewBox="0 0 961 1146" fill="none" xmlns="http://www.w3.org/2000/svg">
<path opacity="0.5" d="M318.635 71.6942C198.697 172.217 180.111 362.298 98.8809 502.527C70.6041 551.322 34.0667 594.992 15.0036 649.123C-28.7619 773.026 31.472 913.572 112.093 1011.98C150.536 1058.93 195.44 1101.94 249.77 1121.72C291.55 1136.94 336.348 1137.57 380.325 1137.97L1150.79 1145.9C1236.81 1146.77 1332.39 1143.62 1394.24 1077.21C1436.87 1031.48 1454.18 964.692 1468.88 900.944C1486.93 822.613 1503.3 737.546 1475.2 662.94C1443.11 577.582 1361.96 529.21 1311.55 455.555C1229.74 336.223 1231.62 155.731 1127.44 60.4664C1078.8 16.0041 1014.62 -1.43212 952.083 -10.1502C834.184 -26.6089 722.506 4.4592 606.725 0.126568C507.756 -3.57202 400.739 2.87409 318.635 71.6942Z" fill="#E7ECFF"/>
</svg>
